  <svg
        width="120"
        height="120"
        viewBox="0 0 512 512"
        xmlns="http://www.w3.org/2000/svg"
    >
        <title>FerreControl POS</title>

        <circle cx="256" cy="256" r="256" fill="#1D9E75" />

        <!-- Cuerpo caja registradora -->
        <rect x="114" y="148" width="284" height="216" rx="20" fill="#ffffff" />

        <!-- Pantalla -->
        <rect x="138" y="168" width="236" height="64" rx="10" fill="#085041" />
        <rect x="152" y="192" width="130" height="9" rx="4" fill="#5DCAA5" />
        <rect x="152" y="208" width="80" height="9" rx="4" fill="#0F6E56" />

        <!-- Botones fila 1 -->
        <rect x="138" y="250" width="40" height="28" rx="6" fill="#9FE1CB" />
        <rect x="188" y="250" width="40" height="28" rx="6" fill="#9FE1CB" />
        <rect x="238" y="250" width="40" height="28" rx="6" fill="#9FE1CB" />
        <!-- Botones fila 2 -->
        <rect x="138" y="290" width="40" height="28" rx="6" fill="#5DCAA5" />
        <rect x="188" y="290" width="40" height="28" rx="6" fill="#5DCAA5" />
        <rect x="238" y="290" width="96" height="28" rx="6" fill="#085041" />

        <!-- Cajón -->
        <rect x="114" y="354" width="284" height="28" rx="10" fill="#0F6E56" />
        <rect x="208" y="358" width="96" height="16" rx="5" fill="#5DCAA5" />

        <!-- Llave pequeña acento -->
        <g transform="translate(158,120) rotate(-40)">
            <rect x="-8" y="4" width="16" height="64" rx="8" fill="#ffffff" />
            <rect
                x="-22"
                y="-40"
                width="44"
                height="46"
                rx="8"
                fill="#ffffff"
            />
            <rect
                x="-14"
                y="-52"
                width="12"
                height="22"
                rx="4"
                fill="#1D9E75"
            />
            <rect x="3" y="-46" width="11" height="18" rx="4" fill="#1D9E75" />
        </g>
    </svg>